<svg xmlns="http://www.w3.org/2000/svg" width="22.302" height="20.594" viewBox="0 0 22.302 20.594"><defs><style>.a{fill:#fff;}</style></defs><g transform="translate(-29 -432.281)"><g transform="translate(31.845 437.103)"><path class="a" d="M219.906,142.966l0-7.99a5.054,5.054,0,0,0-1.5-3.594,5,5,0,0,0-3.57-1.5,5.108,5.108,0,0,0-5.09,5.09l.007,7.988-1.356,0-.013-7.988a6.458,6.458,0,0,1,6.45-6.453,6.253,6.253,0,0,1,2.483.51,6.5,6.5,0,0,1,3.434,3.434,6.366,6.366,0,0,1,.51,2.5v7.988Z" transform="translate(-206.511 -128.525)"/><path class="a" d="M136.911,801.058H121.479a.681.681,0,0,1-.024-1.362h15.432a.681.681,0,1,1,.024,1.362Z" transform="translate(-120.798 -785.286)"/><path class="a" d="M417.345,325.279h-1.731v-3.763l-2.463,4.62h1.793v3.592Z" transform="translate(-406.874 -317.373)"/></g><path class="a" d="M31.283,32.154a.686.686,0,0,0,.684.684h1.938a.684.684,0,0,0,0-1.368H31.967A.686.686,0,0,0,31.283,32.154Zm-1.8-5.325a.7.7,0,0,0,.49-.205l1.368-1.368a.685.685,0,0,0-.969-.969L29,25.655a.7.7,0,0,0,0,.969A.656.656,0,0,0,29.482,26.83ZM23.462,24.3a.686.686,0,0,0,.684-.684V21.676a.684.684,0,1,0-1.368,0v1.938A.686.686,0,0,0,23.462,24.3Zm-6.453,2.235a.656.656,0,0,0,.479.205.69.69,0,0,0,.49-1.174L16.609,24.2a.685.685,0,1,0-.969.969Zm-4.036,6.18H14.91a.684.684,0,1,0,0-1.368H12.972a.684.684,0,0,0,0,1.368Z" transform="translate(16.712 411.289)"/></g></svg>