<svg xmlns="http://www.w3.org/2000/svg" xmlns:xlink="http://www.w3.org/1999/xlink" width="47" height="47" viewBox="0 0 47 47"><defs><style>.a{fill:#d7e8f5;}.b{filter:url(#g);}.c{filter:url(#e);}.d{filter:url(#c);}.e{filter:url(#a);}</style><filter id="a" x="0" y="0" width="38" height="38" filterUnits="userSpaceOnUse"><feOffset dx="3" dy="3" input="SourceAlpha"/><feGaussianBlur stdDeviation="5" result="b"/><feFlood flood-color="#454b51" flood-opacity="0.059"/><feComposite operator="in" in2="b"/><feComposite in="SourceGraphic"/></filter><filter id="c" x="9" y="0" width="38" height="38" filterUnits="userSpaceOnUse"><feOffset dx="3" dy="3" input="SourceAlpha"/><feGaussianBlur stdDeviation="5" result="d"/><feFlood flood-color="#454b51" flood-opacity="0.059"/><feComposite operator="in" in2="d"/><feComposite in="SourceGraphic"/></filter><filter id="e" x="0" y="9" width="38" height="38" filterUnits="userSpaceOnUse"><feOffset dx="3" dy="3" input="SourceAlpha"/><feGaussianBlur stdDeviation="5" result="f"/><feFlood flood-color="#454b51" flood-opacity="0.059"/><feComposite operator="in" in2="f"/><feComposite in="SourceGraphic"/></filter><filter id="g" x="9" y="9" width="38" height="38" filterUnits="userSpaceOnUse"><feOffset dx="3" dy="3" input="SourceAlpha"/><feGaussianBlur stdDeviation="5" result="h"/><feFlood flood-color="#454b51" flood-opacity="0.059"/><feComposite operator="in" in2="h"/><feComposite in="SourceGraphic"/></filter></defs><g transform="translate(-402 -126)"><g transform="translate(75 -4)"><g class="e" transform="matrix(1, 0, 0, 1, 327, 130)"><rect class="a" width="8" height="8" transform="translate(12 12)"/></g><g class="d" transform="matrix(1, 0, 0, 1, 327, 130)"><rect class="a" width="8" height="8" transform="translate(21 12)"/></g></g><g transform="translate(75 5)"><g class="c" transform="matrix(1, 0, 0, 1, 327, 121)"><rect class="a" width="8" height="8" transform="translate(12 21)"/></g><g class="b" transform="matrix(1, 0, 0, 1, 327, 121)"><rect class="a" width="8" height="8" transform="translate(21 21)"/></g></g></g></svg>