<svg xmlns="http://www.w3.org/2000/svg" width="20" height="21.538" viewBox="0 0 20 21.538"><defs><style>.a,.b{fill:#fff;}.a{stroke:#fff;stroke-width:0.2px;}</style></defs><g transform="translate(-26 -253)"><path class="a" d="M322.52,448.5v2.016H320.5a.5.5,0,0,0,0,1.008h2.016v2.016a.5.5,0,0,0,1.008,0v-2.016h2.016a.5.5,0,0,0,0-1.008h-2.016V448.5a.5.5,0,0,0-1.008,0Z" transform="translate(-291 -191.202)"/><path class="b" d="M105.692,78.538H90.82A2.808,2.808,0,0,1,88,75.75V59.788A2.807,2.807,0,0,1,90.82,57h14.358A2.809,2.809,0,0,1,108,59.788V76.269A2.291,2.291,0,0,1,105.692,78.538Zm-14.873-20a1.267,1.267,0,0,0-1.281,1.25V75.75A1.267,1.267,0,0,0,90.82,77h14.873a.752.752,0,0,0,.769-.731V59.788a1.267,1.267,0,0,0-1.281-1.25Z" transform="translate(-62 196)"/><path class="b" d="M666.717,652.388a.758.758,0,0,1-.543-.226l-1.923-1.923a.77.77,0,0,1,1.089-1.089l1.923,1.923a.77.77,0,0,1-.546,1.315Z" transform="translate(-624.178 -381.696)"/><path class="b" d="M427.846,416.692a3.846,3.846,0,1,1,3.846-3.846A3.851,3.851,0,0,1,427.846,416.692Zm0-6.154a2.308,2.308,0,1,0,2.308,2.308A2.311,2.311,0,0,0,427.846,410.538Z" transform="translate(-389.923 -147.539)"/></g></svg>