<svg xmlns="http://www.w3.org/2000/svg" width="19.972" height="22.925" viewBox="0 0 19.972 22.925"><defs><style>.a,.b{fill:#fff;}.b{stroke:#fff;stroke-width:0.4px;}</style></defs><g transform="translate(-30 -369)"><path class="a" d="M138.945,78.738l.285.195a18.612,18.612,0,0,0,3.167,1.613,12.526,12.526,0,0,0,3.831.814l.92.013a.832.832,0,0,1,.821.832l0,9.012a7.754,7.754,0,0,1-1.082,3.765,13.42,13.42,0,0,1-2.551,3.189,14.519,14.519,0,0,1-3.18,2.277,7.24,7.24,0,0,1-3.172.912,7.131,7.131,0,0,1-3.152-.9,14.51,14.51,0,0,1-3.2-2.29c-2.308-2.159-3.63-4.693-3.63-6.952v-8.2a1.664,1.664,0,0,1,1.641-1.664h.1a12.078,12.078,0,0,0,3.833-.815,17.273,17.273,0,0,0,3.364-1.746l.078-.055A1.664,1.664,0,0,1,138.945,78.738Zm-.959,1.36-.073.052a18.294,18.294,0,0,1-3.728,1.947,13.8,13.8,0,0,1-4.414.927h-.107v8.2c0,1.751,1.107,3.871,3.1,5.737a12.881,12.881,0,0,0,2.829,2.025,5.562,5.562,0,0,0,2.388.714,5.632,5.632,0,0,0,2.393-.721,12.9,12.9,0,0,0,2.831-2.027,11.727,11.727,0,0,0,2.225-2.778,6.1,6.1,0,0,0,.87-2.951l0-8.2-.165,0a14.244,14.244,0,0,1-3.75-.711l-.606-.216a19.774,19.774,0,0,1-3.607-1.854Z" transform="translate(-98 290.566)"/><g transform="translate(-0.267 0.389)"><path class="b" d="M55.992,72.1a2.53,2.53,0,1,0-2.527-2.527A2.53,2.53,0,0,0,55.992,72.1Zm0-4.181a1.651,1.651,0,1,1-1.648,1.651A1.661,1.661,0,0,1,55.992,67.923Zm1.913,9.385H52.072a5.544,5.544,0,0,1,.211-2.234,1.934,1.934,0,0,1,.851-.856,5.919,5.919,0,0,1,2.322-.211h2.451a.44.44,0,0,0,0-.88H55.455a6.062,6.062,0,0,0-2.721.311A2.809,2.809,0,0,0,51.5,74.675a6.166,6.166,0,0,0-.3,2.712v.358a.436.436,0,0,0,.438.445h6.274a.44.44,0,0,0,0-.88Z" transform="translate(-15.586 307.457)"/><path class="b" d="M410.2,2.979a.312.312,0,0,1-.614,0l-.2-2.814a.513.513,0,0,1,.512-.512.526.526,0,0,1,.512.563Zm-.307,1.113a.512.512,0,1,1-.512.512.483.483,0,0,1,.512-.512Z" transform="translate(-365.48 380.531)"/></g></g></svg>