<svg xmlns="http://www.w3.org/2000/svg" width="12" height="11.52" viewBox="0 0 12 11.52"><defs><style>.a{isolation:isolate;}.b{fill:#5389d8;}</style></defs><g class="a" transform="translate(-143 -119.1)"><path class="b" d="M148.76,130.62h-4.534A1.226,1.226,0,0,1,143,129.394v-9.046a1.248,1.248,0,0,1,1.248-1.248h9.467a1.209,1.209,0,0,1,1.25,1.3v.483a.506.506,0,1,1-1.013,0V120.4c0-.29-.109-.29-.235-.29h-9.469a.237.237,0,0,0-.234.235v9.045a.214.214,0,0,0,.213.213h4.523a.507.507,0,1,1,.01,1.014Z"/><path class="b" d="M297.665,286.951H292a.507.507,0,1,1,0-1.014h5.666a.507.507,0,0,1,0,1.014Zm-4.243-5.037h-4.414a.507.507,0,1,1,0-1.014h4.414a.507.507,0,1,1,0,1.014Zm-2.485,2.267h-1.93a.507.507,0,0,1,0-1.014h1.93a.507.507,0,0,1,0,1.014Z" transform="translate(-143.172 -159.211)"/><path class="b" d="M653.007,425.378a.507.507,0,0,1-.507-.507v-5.664a.507.507,0,0,1,1.014,0v5.664A.507.507,0,0,1,653.007,425.378Z" transform="translate(-501.348 -294.806)"/></g></svg>