<?xml version="1.0" standalone="no"?><!DOCTYPE svg PUBLIC "-//W3C//DTD SVG 1.1//EN" "http://www.w3.org/Graphics/SVG/1.1/DTD/svg11.dtd"><svg t="1670577356990" class="icon" viewBox="0 0 1024 1024" version="1.1" xmlns="http://www.w3.org/2000/svg" p-id="1923" xmlns:xlink="http://www.w3.org/1999/xlink" width="200" height="200"><path d="M927.854938 288.030593a31.973697 31.973697 0 0 0-31.970084 31.998984v489.12423A86.66241 86.66241 0 0 1 809.14297 895.884854H214.85703a86.373415 86.373415 0 0 1-61.476486-25.380996C136.976459 854.09616 127.880338 832.342053 127.880338 809.14297v-489.12423A96.127 96.127 0 0 1 224.000113 223.971213h563.179228l-41.904291 42.243861a32.002596 32.002596 0 0 0 45.433644 45.08685l96.000565-96.766401a31.998984 31.998984 0 0 0-0.090311-45.155487l-95.99334-96.007789a32.006209 32.006209 0 0 0-45.256635 45.271085L786.745849 160.031044H224.000113A159.947958 159.947958 0 0 0 63.940169 320.000677v489.124231A150.566454 150.566454 0 0 0 214.85703 959.825022h594.28594A150.309971 150.309971 0 0 0 959.825022 809.14297v-489.12423a31.973697 31.973697 0 0 0-31.970084-31.988147z" fill="" p-id="1924"></path><path d="M287.911382 639.997742V768.004516a31.970084 31.970084 0 1 0 63.940169 0v-128.006774a31.970084 31.970084 0 1 0-63.940169 0zM480.093133 384.002258v384.002258a31.970084 31.970084 0 1 0 63.940169 0V384.002258a31.970084 31.970084 0 1 0-63.940169 0zM671.91364 575.999774V768.004516a31.970084 31.970084 0 1 0 63.940169 0v-192.001129a31.970084 31.970084 0 1 0-63.940169-0.003613z" fill="" p-id="1925"></path></svg>