<svg xmlns="http://www.w3.org/2000/svg" width="20.001" height="18" viewBox="0 0 20.001 18"><defs><style>.a{fill:#fff;}</style></defs><path class="a" d="M11641.743,8396a.772.772,0,0,1,0-1.542h18.514a.771.771,0,0,1,0,1.542Zm5.105-4.02v-.126h2.663v.1a1.332,1.332,0,1,1-2.663.023Zm9.518.15a.771.771,0,0,1,0-1.542h3.891a.771.771,0,0,1,0,1.542Zm-1.841-1.187h-12.782a.771.771,0,0,1-.012-1.541h.9v-5.688a5.514,5.514,0,1,1,11.021,0v5.688h.869a.771.771,0,0,1,.012,1.541Zm-10.4-7.3v5.747h8.047v-5.679a4.119,4.119,0,0,0-3.958-4.169l-.066,0A4.117,4.117,0,0,0,11644.122,8383.646Zm12.244,4.617a.773.773,0,0,1,0-1.545h3.891a.773.773,0,0,1,0,1.545Z" transform="translate(-11641.002 -8378)"/></svg>