<svg xmlns="http://www.w3.org/2000/svg" width="20.001" height="20" viewBox="0 0 20.001 20"><defs><style>.a{fill:#fff;}</style></defs><path class="a" d="M13243.315-9039h-5.154a.691.691,0,0,1-.685-.7.691.691,0,0,1,.685-.694h4.471v-4.56a.691.691,0,0,1,.684-.7.691.691,0,0,1,.685.7v5.254a.691.691,0,0,1-.685.7Zm-18.632,0a.691.691,0,0,1-.685-.7v-5.254a.691.691,0,0,1,.685-.7.69.69,0,0,1,.682.7v4.56h4.474a.69.69,0,0,1,.685.694.691.691,0,0,1-.685.7Zm16-2.684h-13.4a.676.676,0,0,1-.442-.2.706.706,0,0,1-.176-.316l0,0a.152.152,0,0,1,0-.022l0-.012c0-.007,0-.014,0-.019l0-.016a.12.12,0,0,1,0-.02.087.087,0,0,1,0-.015c0-.007,0-.014,0-.021s0-.011,0-.016,0-.022,0-.034v-13.237a.69.69,0,0,1,.681-.7h13.252a.553.553,0,0,1,.114-.012.69.69,0,0,1,.682.7v13.247a.69.69,0,0,1-.682.7Zm-.681-1.392v-1.648h-1.989v1.648Zm-3.354,0v-1.648h-1.98v1.648Zm-3.35,0v-1.648h-1.964v1.648Zm-3.329,0v-1.648H13228v1.648Zm10.033-3.043v-5.775h-2.577a.715.715,0,0,1-.093.007.757.757,0,0,1-.094-.007h-3.162a.73.73,0,0,1-.094.007.728.728,0,0,1-.093-.007h-3.145a.728.728,0,0,1-.093.007.715.715,0,0,1-.093-.007H13228v5.775Zm0-7.167v-1.635h-1.985v1.635Zm-3.354,0v-1.635h-1.98v1.635Zm-3.346,0v-1.635h-1.968v1.635Zm-3.333,0v-1.635H13228v1.635Zm12.665.238v-4.561h-4.471a.691.691,0,0,1-.685-.694.692.692,0,0,1,.685-.7h5.154a.691.691,0,0,1,.685.7v5.255a.691.691,0,0,1-.685.7A.691.691,0,0,1,13242.632-9053.048Zm-18.633,0v-5.255a.692.692,0,0,1,.685-.7h5.155a.691.691,0,0,1,.685.7.69.69,0,0,1-.685.694h-4.474v4.561a.69.69,0,0,1-.682.7A.692.692,0,0,1,13224-9053.048Z" transform="translate(-13223.999 9059.001)"/></svg>