<?xml version="1.0" standalone="no"?><!DOCTYPE svg PUBLIC "-//W3C//DTD SVG 1.1//EN" "http://www.w3.org/Graphics/SVG/1.1/DTD/svg11.dtd"><svg t="1692258732933" class="icon" viewBox="0 0 1024 1024" version="1.1" xmlns="http://www.w3.org/2000/svg" p-id="4941" xmlns:xlink="http://www.w3.org/1999/xlink" width="200" height="200"><path d="M563.47 512.39l344.62-344.62c14.98-14.98 14.98-37.46 0-52.44-14.98-14.98-37.46-14.98-52.44 0L511.03 459.94 166.41 115.32c-14.98-14.98-37.46-14.98-52.44 0-14.98 14.99-14.98 37.46 0 52.44l344.62 344.62L113.97 857c-14.98 14.99-14.98 37.46 0 52.44 7.49 7.49 18.73 11.24 26.22 11.24 7.49 0 18.73-3.75 26.22-11.24l344.62-344.62 344.61 344.62c7.49 7.49 18.73 11.24 26.22 11.24 7.49 0 18.73-3.75 26.22-11.24 14.98-14.98 14.98-37.46 0-52.44L563.47 512.39z m0 0" fill="#FFFFFF" p-id="4942"></path></svg>