<?xml version="1.0" standalone="no"?><!DOCTYPE svg PUBLIC "-//W3C//DTD SVG 1.1//EN" "http://www.w3.org/Graphics/SVG/1.1/DTD/svg11.dtd"><svg t="1691639681404" class="icon" viewBox="0 0 1024 1024" version="1.1" xmlns="http://www.w3.org/2000/svg" p-id="7781" xmlns:xlink="http://www.w3.org/1999/xlink" width="200" height="200"><path d="M512 0c283.306667 0 512 228.693333 512 512s-228.693333 512-512 512S0 795.306667 0 512 228.693333 0 512 0z" fill="#F22E40" p-id="7782"></path><path d="M750.933333 368.64h-112.64V273.066667h-256v95.573333H273.066667v47.786667h47.786666V750.933333h382.293334v-334.506666H750.933333v-47.786667z m-317.44-47.786667h160.426667v47.786667h-160.426667V320.853333z m221.866667 382.293334h-286.72v-286.72h290.133333v286.72z" fill="#FFFFFF" p-id="7783"></path><path d="M433.493333 638.293333h47.786667V477.866667h-47.786667v160.426666zM542.72 638.293333h47.786667V477.866667h-47.786667v160.426666z" fill="#FFFFFF" p-id="7784"></path></svg>