<?xml version="1.0" standalone="no"?><!DOCTYPE svg PUBLIC "-//W3C//DTD SVG 1.1//EN" "http://www.w3.org/Graphics/SVG/1.1/DTD/svg11.dtd"><svg t="1682406559241" class="icon" viewBox="0 0 1024 1024" version="1.1" xmlns="http://www.w3.org/2000/svg" p-id="4815" xmlns:xlink="http://www.w3.org/1999/xlink" width="200" height="200"><path d="M293.12 308.906667a31.146667 31.146667 0 0 1-32-29.44v-85.333334A102.4 102.4 0 0 1 355.84 85.333333h312.32a101.973333 101.973333 0 0 1 94.293333 108.373334v80.64a32 32 0 0 1-64 0V193.706667c0-27.733333-15.786667-48.64-30.293333-48.64H355.84c-14.506667 0-30.72 20.906667-30.72 48.64v85.333333a30.72 30.72 0 0 1-32 29.866667zM729.173333 938.666667H294.826667a114.346667 114.346667 0 0 1-119.04-108.373334V395.52a31.146667 31.146667 0 0 1 32-29.44 30.72 30.72 0 0 1 32 29.44v434.773333a52.053333 52.053333 0 0 0 55.04 48.64h434.346666a51.626667 51.626667 0 0 0 54.613334-48.64V390.4a32 32 0 0 1 64 0v439.893333A113.92 113.92 0 0 1 729.173333 938.666667z" fill="#828282" p-id="4816"></path><path d="M370.773333 436.906667m32 0l1.28 0q32 0 32 32l0 329.386666q0 32-32 32l-1.28 0q-32 0-32-32l0-329.386666q0-32 32-32Z" fill="#828282" p-id="4817"></path><path d="M587.946667 436.906667m32 0l1.28 0q32 0 32 32l0 329.386666q0 32-32 32l-1.28 0q-32 0-32-32l0-329.386666q0-32 32-32Z" fill="#828282" p-id="4818"></path><path d="M85.333333 250.026667m29.44 0l794.453334 0q29.44 0 29.44 29.44l0 0q0 29.44-29.44 29.44l-794.453334 0q-29.44 0-29.44-29.44l0 0q0-29.44 29.44-29.44Z" fill="#828282" p-id="4819"></path></svg>