<svg xmlns="http://www.w3.org/2000/svg" width="16" height="16.002" viewBox="0 0 16 16.002"><defs><style>.a{fill:#3768ce;}</style></defs><g transform="translate(-95.8 -89.7)"><path class="a" d="M554.462,89.7h-4.667a1.3,1.3,0,0,0-1.295,1.295v4.667a1.3,1.3,0,0,0,1.295,1.295h4.667a1.3,1.3,0,0,0,1.295-1.295V90.995A1.3,1.3,0,0,0,554.462,89.7Zm.128,5.962a.13.13,0,0,1-.126.126H549.8a.13.13,0,0,1-.126-.126V90.995a.13.13,0,0,1,.126-.126h4.667a.13.13,0,0,1,.126.126Z" transform="translate(-443.957)"/><path class="a" d="M107.341,92.582h1.494v1.494h-1.494ZM101.762,89.7H97.095A1.3,1.3,0,0,0,95.8,90.995v4.667a1.3,1.3,0,0,0,1.295,1.295h4.667a1.3,1.3,0,0,0,1.295-1.295V90.995A1.3,1.3,0,0,0,101.762,89.7Zm.128,5.962a.13.13,0,0,1-.126.126H97.1a.13.13,0,0,1-.126-.126V90.995a.13.13,0,0,1,.126-.126h4.667a.13.13,0,0,1,.126.126Z" transform="translate(0)"/><path class="a" d="M98.682,240.4h1.494v1.494H98.682Zm3.079,5.776H97.095a1.3,1.3,0,0,0-1.295,1.3v4.667a1.3,1.3,0,0,0,1.295,1.295h4.667a1.3,1.3,0,0,0,1.295-1.295v-4.667A1.3,1.3,0,0,0,101.762,246.176Zm.128,5.962a.13.13,0,0,1-.126.126H97.1a.13.13,0,0,1-.126-.126v-4.667a.13.13,0,0,1,.126-.126h4.667a.13.13,0,0,1,.126.126Z" transform="translate(0 -147.733)"/><path class="a" d="M246.5,510.56h1.494v1.494H246.5Zm11.612-.2h-1.857a1.114,1.114,0,0,0-1.113,1.113v2.247l-1.668.019v-2.8a.585.585,0,1,0-1.171,0v2.794a1.152,1.152,0,0,0,1.15,1.15h1.723a1.135,1.135,0,0,0,1.134-1.134v-2.224h1.668v2.775a.585.585,0,1,0,1.171,0V511.4A1.038,1.038,0,0,0,258.112,510.363Zm-5.222-.792a.585.585,0,0,0,.585-.585v-1.4a.585.585,0,1,0-1.171,0v1.4A.588.588,0,0,0,252.89,509.571Zm3.422-.585v-1.4a.585.585,0,1,0-1.171,0v1.4a.585.585,0,0,0,1.171,0ZM258.563,507a.585.585,0,0,0-.585.585v1.4a.585.585,0,0,0,1.171,0v-1.4A.585.585,0,0,0,258.563,507Z" transform="translate(-147.733 -409.234)"/></g></svg>