<svg xmlns="http://www.w3.org/2000/svg" width="12" height="12" viewBox="0 0 12 12"><defs><style>.a{fill:#5389d8;}</style></defs><path class="a" d="M427.214,0h-3.429a.4.4,0,0,0-.429.429.4.4,0,0,0,.429.429h2.4L420.7,6.343a.424.424,0,0,0,.6.6l5.486-5.486v2.4a.429.429,0,0,0,.857,0V.429A.4.4,0,0,0,427.214,0Z" transform="translate(-415.643)"/><path class="a" d="M11.571,6a.4.4,0,0,0-.429.429v3.857a.81.81,0,0,1-.857.857H1.714a.81.81,0,0,1-.857-.857V1.714A.81.81,0,0,1,1.714.857H5.571A.4.4,0,0,0,6,.429.4.4,0,0,0,5.571,0H1.714A1.719,1.719,0,0,0,0,1.714v8.571A1.719,1.719,0,0,0,1.714,12h8.571A1.719,1.719,0,0,0,12,10.286V6.429A.4.4,0,0,0,11.571,6Z"/></svg>