<svg xmlns="http://www.w3.org/2000/svg" width="20" height="20" viewBox="0 0 20 20"><defs><style>.a{fill:#fff;}</style></defs><g transform="translate(-125.052 -67.932)"><path class="a" d="M127.452,106.805a1.053,1.053,0,0,1-.739-.3.989.989,0,0,1-.3-.722v-5.225a1.01,1.01,0,0,1,.476-1,1.082,1.082,0,0,1,1.137,0,1.01,1.01,0,0,1,.476,1v5.225a1,1,0,0,1-.307.723,1.07,1.07,0,0,1-.745.3Zm5.193,0a1.053,1.053,0,0,1-.738-.3.989.989,0,0,1-.3-.721V97.507a1.057,1.057,0,0,1,2.088,0v8.259a1,1,0,0,1-.3.734,1.069,1.069,0,0,1-.751.306Zm5.194,0a1.053,1.053,0,0,1-.738-.3.989.989,0,0,1-.3-.721v-3.634a1.057,1.057,0,0,1,2.088,0v3.634a1,1,0,0,1-.307.723,1.069,1.069,0,0,1-.745.3Zm5.194,0a1.053,1.053,0,0,1-.739-.3.989.989,0,0,1-.3-.722v-6.7a1.01,1.01,0,0,1,.478-1,1.082,1.082,0,0,1,1.134,0,1.01,1.01,0,0,1,.478,1v6.785a1.04,1.04,0,0,1-1.052.938ZM126.088,96.669a1.047,1.047,0,0,1-.845-.4,1,1,0,0,1,.259-1.424l7.505-5.611a1.1,1.1,0,0,1,1.294,0l3.452,2.73,5.574-4.507a1.067,1.067,0,0,1,1.415.162.99.99,0,0,1-.07,1.38l-6.2,5.06a1.059,1.059,0,0,1-1.328,0l-3.45-2.748-6.9,5.143a1.091,1.091,0,0,1-.707.218Z" transform="translate(0 -18.873)"/><path class="a" d="M729.024,73.963a1.052,1.052,0,0,1-1.052-1.037v-2.9h-2.934a1.054,1.054,0,0,1,0-2.091h3.987a1.053,1.053,0,0,1,1.052,1.036v3.958a1.053,1.053,0,0,1-1.052,1.038Z" transform="translate(-585.024)"/></g></svg>