<svg xmlns="http://www.w3.org/2000/svg" width="20" height="19.944" viewBox="0 0 20 19.944"><defs><style>.a{fill:#fff;}</style></defs><path class="a" d="M97.813,94.646a3.165,3.165,0,0,1,3.167,3.167v3.167H97.813a3.167,3.167,0,1,1,0-6.333m0-1.556a4.722,4.722,0,1,0,0,9.444h4.722V97.813a4.683,4.683,0,0,0-4.722-4.722ZM100.98,105.2v3.167a3.167,3.167,0,1,1-6.333,0,3.13,3.13,0,0,1,3.167-3.167h3.167m1.611-1.611H97.869a4.722,4.722,0,1,0,4.722,4.722Zm5.778-8.944a3.165,3.165,0,0,1,3.167,3.167,3.13,3.13,0,0,1-3.167,3.167H105.2V97.813a3.165,3.165,0,0,1,3.167-3.167m0-1.556a4.718,4.718,0,0,0-4.722,4.722v4.722h4.722a4.722,4.722,0,0,0,0-9.444Zm0,12.111a3.165,3.165,0,0,1,3.167,3.167,3.13,3.13,0,0,1-3.167,3.167,3.165,3.165,0,0,1-3.167-3.167V105.2h3.167m0-1.611h-4.722v4.722a4.722,4.722,0,1,0,4.722-4.722Z" transform="translate(-93.091 -93.091)"/></svg>