<?xml version="1.0" standalone="no"?><!DOCTYPE svg PUBLIC "-//W3C//DTD SVG 1.1//EN" "http://www.w3.org/Graphics/SVG/1.1/DTD/svg11.dtd"><svg t="1687849544733" class="icon" viewBox="0 0 1024 1024" version="1.1" xmlns="http://www.w3.org/2000/svg" p-id="3413" xmlns:xlink="http://www.w3.org/1999/xlink" width="200" height="200"><path d="M469.952 120.128L414.592 64l-165.12 167.68-55.36 56.128 55.296 56.128 165.184 167.68 55.36-56.128-165.184-167.68z" fill="#000000" p-id="3414"></path><path d="M609.408 248.32H258.752v79.04h350.656c150.592 0 272.64 123.904 272.64 276.8 0 152.832-122.048 276.736-272.64 276.736H102.976a39.232 39.232 0 0 0-38.976 39.552c0 21.824 17.472 39.552 38.976 39.552h506.432C803.008 960 960 800.64 960 604.16c0-196.544-156.992-355.84-350.592-355.84z" fill="#000000" p-id="3415"></path></svg>