<?xml version="1.0" standalone="no"?><!DOCTYPE svg PUBLIC "-//W3C//DTD SVG 1.1//EN" "http://www.w3.org/Graphics/SVG/1.1/DTD/svg11.dtd"><svg t="1691636268131" class="icon" viewBox="0 0 1024 1024" version="1.1" xmlns="http://www.w3.org/2000/svg" p-id="4975" xmlns:xlink="http://www.w3.org/1999/xlink" width="200" height="200"><path d="M489.293965 60.228208a37.040348 37.040348 0 0 1 5.05917 73.779556l-5.05917 0.361369H74.201153v815.369486h815.369486V551.268792c0-18.730973 13.972944-34.269851 32.041407-36.739207l5.059169-0.301141c18.730973 0 34.269851 13.972944 36.739207 32.041407l0.301141 4.998941v435.570403a37.100576 37.100576 0 0 1-32.041407 36.739208l-4.998941 0.301141H37.100576a37.100576 37.100576 0 0 1-36.739207-32.041407L0.060228 986.839195V97.268557c0-18.730973 13.972944-34.269851 32.041407-36.739208L37.100576 60.228208h452.193389z m477.910834-5.962592c13.250206 13.009293 14.695683 33.60734 4.095519 48.182567l-3.553465 4.215974-451.892248 461.58899h125.093989c18.791201 0 34.269851 13.972944 36.739207 32.101635l0.301141 4.998941a37.100576 37.100576 0 0 1-31.981178 36.739207l-5.05917 0.361369H418.586049a37.100576 37.100576 0 0 1-36.739207-32.041406l-0.36137-5.05917V383.051406a37.040348 37.040348 0 0 1 73.779556-5.05917l0.361369 5.05917v140.753323L914.806258 54.80767a37.040348 37.040348 0 0 1 52.398541-0.542054z" fill="#4B7BEC" p-id="4976"></path></svg>