<svg xmlns="http://www.w3.org/2000/svg" width="20" height="24.169" viewBox="0 0 20 24.169"><defs><style>.a{fill:#fff;}</style></defs><path class="a" d="M122.335,53.215a2.954,2.954,0,0,0,4.952,0h1.8a4.567,4.567,0,0,1-8.545,0h1.8ZM124.811,32a2.417,2.417,0,0,1,2.139,3.544,7.253,7.253,0,0,1,5.112,6.93v6.068l2.363,1.97a1.074,1.074,0,0,1-.688,1.9H115.885a1.074,1.074,0,0,1-.687-1.9l2.363-1.97V42.473a7.255,7.255,0,0,1,5.113-6.931A2.417,2.417,0,0,1,124.811,32Zm0,4.834a5.639,5.639,0,0,0-5.639,5.639V49.3l-1.8,1.5h14.885l-1.8-1.5V42.473A5.639,5.639,0,0,0,124.811,36.834Zm0-3.223a.806.806,0,1,0,.806.806A.806.806,0,0,0,124.811,33.611Z" transform="translate(-114.811 -32)"/></svg>