<svg xmlns="http://www.w3.org/2000/svg" width="16.033" height="20.334" viewBox="0 0 16.033 20.334"><defs><style>.a{fill:#fff;}</style></defs><g transform="translate(-161.23 -67.123)"><path class="a" d="M351.567,317.053a3.843,3.843,0,1,0-3.844,3.843A3.848,3.848,0,0,0,351.567,317.053Zm-6.213,0a2.37,2.37,0,1,1,.694,1.676A2.373,2.373,0,0,1,345.353,317.053Z" transform="translate(-178.477 -240.464)"/><path class="a" d="M174.979,80.84a7.894,7.894,0,0,0,2.283-5.642v-.123a8.016,8.016,0,0,0-16.032.125v.134a7.968,7.968,0,0,0,5.552,7.508l-1.176,3.141h-2.292a.737.737,0,1,0,0,1.473h11.863a.737.737,0,1,0,0-1.473h-2.292l-1.174-3.138A7.913,7.913,0,0,0,174.979,80.84ZM162.7,75.328v-.136a6.551,6.551,0,0,1,6.491-6.6h.053a6.55,6.55,0,0,1,6.542,6.485V75.2a6.478,6.478,0,0,1-6.426,6.536h-.183A6.486,6.486,0,0,1,162.7,75.328Zm8.609,10.656H167.18l1.059-2.83a7.919,7.919,0,0,0,.936.061h.193a8.013,8.013,0,0,0,.886-.059Z" transform="translate(0 0)"/><path class="a" d="M463.174,177.628a1.144,1.144,0,0,0,0-2.288,1.3,1.3,0,0,0-.572.156,1.157,1.157,0,0,0-.572.988A1.144,1.144,0,0,0,463.174,177.628Z" transform="translate(-293.928 -105.744)"/></g></svg>