<svg xmlns="http://www.w3.org/2000/svg" width="16" height="16" viewBox="0 0 16 16"><defs><style>.a{fill:#3768ce;}</style></defs><g transform="translate(-96.3 -77.1)"><path class="a" d="M110.843,77.8H108.46a1.457,1.457,0,0,0-1.247-.7H101.39a1.456,1.456,0,0,0-1.249.7H97.749A1.421,1.421,0,0,0,96.3,79.182V91.714A1.422,1.422,0,0,0,97.749,93.1h13.1a1.422,1.422,0,0,0,1.449-1.386V79.181a1.424,1.424,0,0,0-1.457-1.385Zm-3.632.7,0,1.385-5.823-.007V78.5l0-.007ZM97.755,91.715l-.008-12.527h2.187v.689a1.427,1.427,0,0,0,1.451,1.4h5.825a1.427,1.427,0,0,0,1.451-1.4v-.689l2.183-.006.006,12.528Z" transform="translate(0 0)"/><path class="a" d="M309.423,374.1a4.023,4.023,0,1,0,4.023,4.023A4.028,4.028,0,0,0,309.423,374.1Zm0,6.889a2.866,2.866,0,1,1,2.866-2.866A2.869,2.869,0,0,1,309.423,380.989Z" transform="translate(-204.994 -291.665)"/><path class="a" d="M486.269,486.467h-1.008v-1.188a.481.481,0,1,0-.961,0l0,1.852a.3.3,0,0,0,.295.295h1.675a.481.481,0,1,0,0-.961Z" transform="translate(-380.505 -400.229)"/></g></svg>