<svg xmlns="http://www.w3.org/2000/svg" width="16.979" height="15.917" viewBox="0 0 16.979 15.917"><defs><style>.a{fill:#3768ce;}</style></defs><path class="a" d="M137.292,146.286a1.592,1.592,0,0,1,1.592,1.592v10.081a1.592,1.592,0,0,1-1.592,1.592H123.5a1.592,1.592,0,0,1-1.592-1.592V147.878a1.592,1.592,0,0,1,1.592-1.592h13.8Zm0,1.592H123.5v10.081h13.8V147.878Zm-10.612,4.775h1.592v3.714H126.68Zm2.918-1.592h1.592v5.306H129.6Zm2.918-1.592h1.592v6.9h-1.592Zm-7.428,11.142H135.7V162.2H125.089Z" transform="translate(-121.905 -146.286)"/></svg>