<svg xmlns="http://www.w3.org/2000/svg" width="20.001" height="22" viewBox="0 0 20.001 22"><defs><style>.a{fill:#fff;}</style></defs><path class="a" d="M76.858,0a1.4,1.4,0,0,1,1.429,1.375h2.857A2.805,2.805,0,0,1,84,4.125V19.25A2.805,2.805,0,0,1,81.144,22H66.857A2.805,2.805,0,0,1,64,19.25V4.125a2.805,2.805,0,0,1,2.857-2.75h2.857A1.4,1.4,0,0,1,71.143,0ZM69.715,2.75H66.857a1.41,1.41,0,0,0-1.419,1.214l-.01.161V19.25a1.4,1.4,0,0,0,1.261,1.365l.167.01H81.144a1.41,1.41,0,0,0,1.419-1.214l.01-.161V4.125A1.4,1.4,0,0,0,81.311,2.76l-.167-.01H78.286a1.4,1.4,0,0,1-1.429,1.375H71.143A1.4,1.4,0,0,1,69.715,2.75Zm7.143,9.625a2.805,2.805,0,0,1,2.857,2.75V16.5a1.4,1.4,0,0,1-1.429,1.375H69.715A1.4,1.4,0,0,1,68.286,16.5V15.125a2.805,2.805,0,0,1,2.857-2.75Zm0,1.375H71.143a1.41,1.41,0,0,0-1.419,1.214l-.01.161V16.5h8.572V15.125a1.4,1.4,0,0,0-1.261-1.365ZM74,6.875a2.805,2.805,0,0,1,2.857,2.75,2.859,2.859,0,0,1-5.715,0A2.805,2.805,0,0,1,74,6.875ZM74,8.25a1.376,1.376,0,1,0,1.429,1.375A1.4,1.4,0,0,0,74,8.25Zm2.857-6.875H71.143V2.75h5.715Z" transform="translate(-64)"/></svg>