<?xml version="1.0" standalone="no"?><!DOCTYPE svg PUBLIC "-//W3C//DTD SVG 1.1//EN" "http://www.w3.org/Graphics/SVG/1.1/DTD/svg11.dtd"><svg t="1701766451609" class="icon" viewBox="0 0 1024 1024" version="1.1" xmlns="http://www.w3.org/2000/svg" p-id="2324" xmlns:xlink="http://www.w3.org/1999/xlink" width="200" height="200"><path d="M109.837474 81.057684a27.270737 27.270737 0 0 0-27.486316 27.055158v238.915369c0 14.928842 12.341895 27.001263 27.486316 27.001263h242.849684c15.144421 0 27.486316-12.072421 27.486316-27.001263V108.112842a27.270737 27.270737 0 0 0-27.486316-27.055158H109.837474z m0-81.057684h242.849684c60.631579 0 109.837474 48.397474 109.837474 108.112842v238.915369c0 59.715368-49.205895 108.058947-109.837474 108.058947H109.837474C49.205895 455.087158 0 406.743579 0 347.082105V108.112842C0 48.397474 49.205895 0 109.837474 0z m0 649.970526a27.270737 27.270737 0 0 0-27.486316 27.001263v238.915369c0 14.928842 12.341895 27.055158 27.486316 27.055158h242.849684c15.144421 0 27.486316-12.126316 27.486316-27.055158v-238.915369a27.270737 27.270737 0 0 0-27.486316-27.001263H109.837474z m0-81.057684h242.849684c60.631579 0 109.837474 48.343579 109.837474 108.058947v238.915369c0 59.715368-49.205895 108.112842-109.837474 108.112842H109.837474C49.205895 1024 0 975.602526 0 915.887158v-238.915369c0-59.715368 49.205895-108.058947 109.837474-108.058947z m472.441263-216.225684a40.151579 40.151579 0 0 1-40.421053-39.774316c0-22.042947 18.054737-39.882105 40.421053-39.882105h401.246316c22.366316 0 40.474947 17.839158 40.474947 39.882105a40.151579 40.151579 0 0 1-40.421053 39.774316h-401.30021z m0-170.630737a40.151579 40.151579 0 0 1-40.421053-39.882105c0-21.935158 18.054737-39.774316 40.421053-39.774316h401.246316c22.366316 0 40.474947 17.785263 40.474947 39.828211a40.151579 40.151579 0 0 1-40.421053 39.82821h-401.30021z m0 739.543579a40.151579 40.151579 0 0 1-40.421053-39.828211c0-21.989053 18.054737-39.828211 40.421053-39.82821h401.246316c22.366316 0 40.474947 17.839158 40.474947 39.882105a40.151579 40.151579 0 0 1-40.421053 39.774316h-401.30021z m0-170.684632a40.151579 40.151579 0 0 1-40.421053-39.82821c0-21.989053 18.054737-39.774316 40.421053-39.774316h401.246316c22.366316 0 40.474947 17.785263 40.474947 39.774316a40.151579 40.151579 0 0 1-40.421053 39.882105h-401.30021z" fill="#409EFF" p-id="2325"></path></svg>