<svg xmlns="http://www.w3.org/2000/svg" width="20" height="18.782" viewBox="0 0 20 18.782"><defs><style>.a{fill:#fff;}</style></defs><g transform="translate(-137.418 -106.6)"><path class="a" d="M157.965,108.084,166,110.762l-8.037,3.672-8.043-3.662,8.043-2.688m0-1.483a2.046,2.046,0,0,0-.623.1l-8,2.684a1.525,1.525,0,0,0-1.119,1.3,1.461,1.461,0,0,0,.936,1.408l8,3.647a1.954,1.954,0,0,0,1.612,0l8.032-3.667a1.461,1.461,0,0,0,.936-1.408,1.525,1.525,0,0,0-1.119-1.3l-8-2.684A2.057,2.057,0,0,0,157.965,106.6Z" transform="translate(-10.548 0)"/><path class="a" d="M147.418,481.94a2.863,2.863,0,0,1-1.2-.257l-8.315-3.81a.748.748,0,0,1-.488-.631.721.721,0,0,1,.409-.672.967.967,0,0,1,.876-.006l8.315,3.81a.977.977,0,0,0,.8,0l8.315-3.81a.967.967,0,0,1,.876.006.721.721,0,0,1,.409.672.748.748,0,0,1-.488.631l-8.315,3.81A2.862,2.862,0,0,1,147.418,481.94Z" transform="translate(0 -361.293)"/><path class="a" d="M147.419,687.146a2.862,2.862,0,0,1-1.2-.257l-8.315-3.791a.748.748,0,0,1-.488-.631.721.721,0,0,1,.409-.672.968.968,0,0,1,.876-.006l8.315,3.81a.976.976,0,0,0,.8,0l8.315-3.81a.968.968,0,0,1,.876.006.721.721,0,0,1,.409.672.748.748,0,0,1-.488.631l-8.315,3.81A2.871,2.871,0,0,1,147.419,687.146Z" transform="translate(0 -561.765)"/></g></svg>