<svg xmlns="http://www.w3.org/2000/svg" width="20" height="17.901" viewBox="0 0 20 17.901"><defs><style>.a{fill:;}</style></defs><g transform="translate(-73.445 -119.467)"><path class="a" d="M87.659,119.467H79.22a1.557,1.557,0,0,0-1.352.786l-4.219,7.394a1.557,1.557,0,0,0,0,1.543l4.219,7.394a1.557,1.557,0,0,0,1.352.785h8.439a1.557,1.557,0,0,0,1.351-.784l4.229-7.394a1.557,1.557,0,0,0,0-1.546l-4.229-7.394a1.557,1.557,0,0,0-1.351-.784Zm-8.439,1.557h8.439l4.229,7.394-4.229,7.394H79.22L75,128.418l4.219-7.394Z" transform="translate(0 0)"/><path class="a" d="M361.9,358.4a3.5,3.5,0,1,0,3.5,3.5A3.5,3.5,0,0,0,361.9,358.4Zm0,1.557a1.946,1.946,0,1,1-1.946,1.946A1.946,1.946,0,0,1,361.9,359.957Z" transform="translate(-278.458 -233.485)"/></g></svg>