<svg xmlns="http://www.w3.org/2000/svg" width="16" height="16" viewBox="0 0 16 16"><defs><style>.a{fill:;}</style></defs><path class="a" d="M-628.171,13830v0a7.99,7.99,0,0,1-7.216-4.937,7.944,7.944,0,0,1-.457-4.623,7.979,7.979,0,0,1,2.2-4.094,7.981,7.981,0,0,1,5.672-2.343,8.012,8.012,0,0,1,1.842.214,8.029,8.029,0,0,1,3.569,1.879,8.047,8.047,0,0,1,2.2,3.379.684.684,0,0,1-.037.522.683.683,0,0,1-.4.342.681.681,0,0,1-.217.033.676.676,0,0,1-.647-.467,6.643,6.643,0,0,0-6.309-4.534,6.693,6.693,0,0,0-1.419.152,6.626,6.626,0,0,0-5.2,7.188,6.633,6.633,0,0,0,6.61,5.923.685.685,0,0,1,.684.685.685.685,0,0,1-.684.684Zm1.886-.572a.844.844,0,0,1-.847-.843v-2.032a.847.847,0,0,1,.847-.844h5.442a.846.846,0,0,1,.843.844v2.032a.843.843,0,0,1-.843.843Zm5.117-1.168v-1.382h-.787a.714.714,0,0,1,.543.691.712.712,0,0,1-.542.69Zm-4.792,0h3.668a.712.712,0,0,1-.542-.69.714.714,0,0,1,.543-.691h-3.669Zm-.325-2.733a.847.847,0,0,1-.847-.846v-2.028a.848.848,0,0,1,.847-.848h5.442a.847.847,0,0,1,.843.848v2.028a.846.846,0,0,1-.843.846Zm5.117-1.171v-1.379h-.786a.71.71,0,0,1,.542.688.712.712,0,0,1-.542.69Zm-4.792,0h3.668a.712.712,0,0,1-.542-.69.71.71,0,0,1,.542-.688h-3.668Zm-7.6-1.518a.672.672,0,0,1-.481-.2.688.688,0,0,1-.2-.485.68.68,0,0,1,.681-.68h.637a.683.683,0,0,1,.684.68.7.7,0,0,1-.2.485.686.686,0,0,1-.484.2Zm3.014-.159a.686.686,0,0,1-.684-.684.684.684,0,0,1,.684-.681h1.879v-1.883a.681.681,0,0,1,.681-.684.682.682,0,0,1,.684.684V13822a.686.686,0,0,1-.684.681Zm1.89-5.6v-.638a.684.684,0,0,1,.681-.685.689.689,0,0,1,.681.685v.638a.686.686,0,0,1-.681.68A.68.68,0,0,1-628.655,13817.08Z" transform="translate(636 -13814.001)"/></svg>