<svg xmlns="http://www.w3.org/2000/svg" width="20" height="16.53" viewBox="0 0 20 16.53"><defs><style>.a{fill:#3768ce;}</style></defs><g transform="translate(-9595.787 -3412)"><path class="a" d="M382.666,45.28a8.093,8.093,0,0,0-4.919,1.659.643.643,0,0,0,.781,1.021,6.847,6.847,0,0,1,10.961,4.856,3.206,3.206,0,0,1-.005.6l-1.609.013,1.954,3.891c.169,0,2.6-3.906,2.6-3.906H390.8a4.891,4.891,0,0,0-.028-.7,8.152,8.152,0,0,0-8.109-7.434Zm0,14.986a6.858,6.858,0,0,1-6.852-6.85v-.008l1.627-.018-1.933-3.881-2.6,3.9h1.627a8.246,8.246,0,0,0,8.137,8.139,8.11,8.11,0,0,0,5.072-1.777.644.644,0,0,0-.8-1.006,6.812,6.812,0,0,1-4.267,1.5Z" transform="translate(9223.125 3366.848)"/><path class="a" d="M371.69,39.413h0a8.084,8.084,0,0,0-4.914,1.658.642.642,0,0,0,.781,1.021,6.839,6.839,0,0,1,10.951,4.853,3.208,3.208,0,0,1-.005.6l-1.607.013,1.952,3.888c.168,0,2.6-3.9,2.6-3.9h-1.628a4.878,4.878,0,0,0-.028-.7,8.146,8.146,0,0,0-8.1-7.43m-7.151,4.228-2.6,3.9h1.625a8.24,8.24,0,0,0,8.129,8.134,8.1,8.1,0,0,0,5.067-1.776.644.644,0,0,0-.8-1.005,6.8,6.8,0,0,1-4.263,1.5h0a6.853,6.853,0,0,1-6.845-6.846v-.008l1.625-.018-1.931-3.878m7.152-4.361a8.318,8.318,0,0,1,8.233,7.552l0,.033a4.688,4.688,0,0,1,.026.544h1.733l-.127.2c-2.471,3.967-2.622,3.967-2.713,3.967h-.082l-2.085-4.154,1.7-.013a3.249,3.249,0,0,0-.005-.456,6.753,6.753,0,0,0-6.687-6.124,6.641,6.641,0,0,0-4.05,1.366.763.763,0,0,1-.469.159.77.77,0,0,1-.548-.227.78.78,0,0,1-.227-.6.77.77,0,0,1,.3-.561,8.181,8.181,0,0,1,4.995-1.686Zm-7.135,4.1,2.129,4.275-1.7.019a6.722,6.722,0,0,0,6.711,6.588,6.627,6.627,0,0,0,4.18-1.466A.777.777,0,0,1,376.841,54a8.173,8.173,0,0,1-10.9-.589,8.153,8.153,0,0,1-2.509-5.74h-1.742Z" transform="translate(9234.1 3372.72)"/></g></svg>