<svg xmlns="http://www.w3.org/2000/svg" width="20" height="18" viewBox="0 0 20 18"><defs><style>.a{fill:#5389d8;}</style></defs><path class="a" d="M.948,18A.937.937,0,0,1,0,17.074a.664.664,0,0,1,.017-.067c.01-.037.02-.071.027-.107l.074-.359-.026-.006,1.236-6.156.1-.346a.922.922,0,0,1,.9-.748.938.938,0,0,1,.949.926.57.57,0,0,1-.017.067c-.01.034-.02.071-.027.107l-.075.362.025.006-1.08,5.4H17.894l-1.08-5.4h0l-.052-.371q-.012-.052-.027-.1a.53.53,0,0,1-.017-.071.937.937,0,0,1,.949-.923.921.921,0,0,1,.9.748l.075.365.025-.006,1.233,6.144h0l.051.368c.007.034.016.067.026.1a.7.7,0,0,1,.017.071.937.937,0,0,1-.949.926H.948Zm5.308-4.32a.925.925,0,1,1,0-1.849h7.488a.925.925,0,1,1,0,1.849H6.257ZM10,9.771a.937.937,0,0,1-.948-.923V3.157L6.6,5.546a.966.966,0,0,1-1.342,0,.909.909,0,0,1,0-1.309L9.329.269a.969.969,0,0,1,1.342,0l4.07,3.967a.909.909,0,0,1,0,1.309.967.967,0,0,1-1.342,0l-2.45-2.388v5.69A.937.937,0,0,1,10,9.771Z" transform="translate(0 0)"/></svg>