<?xml version="1.0" standalone="no"?><!DOCTYPE svg PUBLIC "-//W3C//DTD SVG 1.1//EN" "http://www.w3.org/Graphics/SVG/1.1/DTD/svg11.dtd"><svg t="1693987778000" class="icon" viewBox="0 0 1024 1024" version="1.1" xmlns="http://www.w3.org/2000/svg" p-id="4795" xmlns:xlink="http://www.w3.org/1999/xlink" width="200" height="200"><path d="M512.2 512m-448.2 0a448.2 448.2 0 1 0 896.4 0 448.2 448.2 0 1 0-896.4 0Z" fill="#2394E0" p-id="4796"></path><path d="M511.6 645.8c-17 0-30.8-13-30.8-29.2v-49.2c0-47.6 38.6-84 72.6-116.2 25-23.6 50.7-47.9 50.7-67.4 0-48.5-41.5-88-92.6-88-51.9 0-92.6 37.8-92.6 86.1 0 16.1-13.8 29.2-30.8 29.2s-30.8-13-30.8-29.2c0-79.6 69.2-144.3 154.2-144.3s154.2 65.6 154.2 146.3c0 43.6-35 76.7-68.8 108.6-26.8 25.3-54.5 51.5-54.5 75v49.3c0 15.9-13.8 29-30.8 29m-46.3 124.8c0-25 20.7-45.3 46.3-45.3 25.6 0 46.3 20.3 46.3 45.3 0 25-20.7 45.3-46.3 45.3-25.6 0-46.3-20.2-46.3-45.3" fill="#ffffff" p-id="4797"></path></svg>