<?xml version="1.0" standalone="no"?><!DOCTYPE svg PUBLIC "-//W3C//DTD SVG 1.1//EN" "http://www.w3.org/Graphics/SVG/1.1/DTD/svg11.dtd"><svg t="1691722997097" class="icon" viewBox="0 0 1024 1024" version="1.1" xmlns="http://www.w3.org/2000/svg" p-id="8219" xmlns:xlink="http://www.w3.org/1999/xlink" width="200" height="200"><path d="M485.376 682.496l1.024 1.024c4.096 4.096 9.216 7.168 14.336 8.704h0.512c0.512 0 1.024 0.512 1.536 0.512 3.072 0.512 6.144 1.024 9.216 1.024 6.144 0 11.776-1.536 16.384-4.096h0.512c1.024-0.512 1.536-1.024 2.56-1.536 0 0 0.512 0 0.512-0.512 1.024-0.512 1.536-1.024 2.56-2.048h0.512c1.536-1.024 2.56-2.56 3.584-3.584l216.576-216.576c14.336-14.336 14.336-37.376 0-51.2-14.336-14.336-37.376-14.336-51.2 0l-155.648 155.648V112.128c0-19.968-16.384-36.352-36.352-36.352-19.968 0-36.352 16.384-36.352 36.352v457.728L319.488 414.208c-13.824-14.336-37.376-14.336-51.2 0-14.336 14.336-14.336 37.376 0 51.2l217.088 217.088z" fill="#318FD2" p-id="8220"></path><path d="M911.872 584.704c-19.968 0-36.352 16.384-36.352 36.352v218.112c0 19.968-16.384 36.352-36.352 36.352H184.832c-19.968 0-36.352-16.384-36.352-36.352v-218.112c0-19.968-16.384-36.352-36.352-36.352-19.968 0-36.352 16.384-36.352 36.352v218.112c0 60.416 49.152 109.056 109.056 109.056h654.336c60.416 0 109.056-49.152 109.056-109.056v-218.112c0-19.968-15.872-36.352-36.352-36.352z" fill="#318FD2" p-id="8221"></path></svg>