<svg xmlns="http://www.w3.org/2000/svg" width="20" height="20" viewBox="0 0 20 20"><defs><style>.a{fill:#fff;}</style></defs><g transform="translate(-33.28 -33.28)"><path class="a" d="M33.28,35.1v3.037h1.273l.011-3.048a.53.53,0,0,1,.535-.535h3.037V33.28H35.1A1.817,1.817,0,0,0,33.28,35.1Zm1.283,16.364V48.424H33.291v3.048A1.826,1.826,0,0,0,35.1,53.28h3.037V52H35.1A.543.543,0,0,1,34.563,51.462ZM52.007,35.1v3.037H53.28L53.269,35.1a1.826,1.826,0,0,0-1.807-1.807H48.424v1.273h3.048a.536.536,0,0,1,.535.535ZM52,51.473a.53.53,0,0,1-.535.535H48.424V53.28h3.037a1.828,1.828,0,0,0,1.807-1.818V48.424H52Z"/><path class="a" d="M328.016,324.1a3.92,3.92,0,1,0,3.92,3.92A3.915,3.915,0,0,0,328.016,324.1Zm0,6.248a2.328,2.328,0,1,1,2.328-2.328A2.327,2.327,0,0,1,328.016,330.344Z" transform="translate(-284.736 -284.736)"/><path class="a" d="M166.6,159.232a7.373,7.373,0,1,0,7.373,7.373A7.38,7.38,0,0,0,166.6,159.232Zm0,13.162a5.778,5.778,0,1,1,0-11.557v-.011a5.782,5.782,0,0,1,5.778,5.778v.011A5.775,5.775,0,0,1,166.6,172.394Z" transform="translate(-123.325 -123.325)"/></g></svg>